<?xml version="1.0" encoding="iso-8859-1"?>
<!-- Uploaded to: SVG Repo, www.svgrepo.com, Generator: SVG Repo Mixer Tools -->
<svg version="1.1" id="Layer_1" xmlns="http://www.w3.org/2000/svg" xmlns:xlink="http://www.w3.org/1999/xlink" 
	 viewBox="0 0 512 512" xml:space="preserve">
<polygon style="fill:#CB2E3E;" points="503.83,43.574 503.83,468.426 471.149,468.426 362.213,256 471.149,43.574 "/>
<polygon style="fill:#FF3B3B;" points="471.149,43.574 471.149,76.25 405.787,256 471.149,435.747 471.149,468.426 8.17,468.426 
	8.17,43.574 "/>
<polygon style="fill:#FFE29E;" points="471.149,76.255 471.149,435.745 438.468,435.745 373.106,256 438.468,76.255 "/>
<polygon style="fill:#FFF1CF;" points="438.468,76.255 438.468,435.745 256,435.745 201.532,256 256,76.255 "/>
<rect x="40.851" y="76.255" style="fill:#FFFFFF;" width="215.149" height="359.489"/>
<path style="fill:#864941;" d="M256,400.34c-4.512,0-8.17-3.657-8.17-8.17V119.83c0-4.513,3.658-8.17,8.17-8.17
	s8.17,3.657,8.17,8.17v272.34C264.17,396.683,260.512,400.34,256,400.34z"/>
<path style="fill:#FF3B3B;" d="M333.591,119.83c12.912,0,24.137,7.148,29.984,17.693c5.847-10.545,17.071-17.693,29.984-17.693
	c18.937,0,34.289,15.351,34.289,34.289c0,48.028-64.272,82.955-64.272,82.955s-64.272-34.927-64.272-82.955
	C299.302,135.181,314.653,119.83,333.591,119.83z"/>
<g>
	<path style="fill:#CC8073;" d="M212.426,160.681h-128c-4.512,0-8.17-3.657-8.17-8.17s3.658-8.17,8.17-8.17h128
		c4.512,0,8.17,3.657,8.17,8.17S216.938,160.681,212.426,160.681z"/>
	<path style="fill:#CC8073;" d="M212.426,204.255h-128c-4.512,0-8.17-3.657-8.17-8.17s3.658-8.17,8.17-8.17h128
		c4.512,0,8.17,3.657,8.17,8.17S216.938,204.255,212.426,204.255z"/>
	<path style="fill:#CC8073;" d="M212.426,247.83h-128c-4.512,0-8.17-3.657-8.17-8.17s3.658-8.17,8.17-8.17h128
		c4.512,0,8.17,3.657,8.17,8.17S216.938,247.83,212.426,247.83z"/>
	<path style="fill:#CC8073;" d="M148.426,367.66h-64c-4.512,0-8.17-3.657-8.17-8.17s3.658-8.17,8.17-8.17h64
		c4.512,0,8.17,3.657,8.17,8.17S152.938,367.66,148.426,367.66z"/>
</g>
<path d="M503.83,35.404H8.17c-4.512,0-8.17,3.657-8.17,8.17v424.851c0,4.513,3.658,8.17,8.17,8.17h495.66
	c4.512,0,8.17-3.657,8.17-8.17V43.574C512,39.061,508.342,35.404,503.83,35.404z M495.66,460.255H16.34V51.745H495.66V460.255z"/>
<path d="M40.851,443.915h430.298c4.512,0,8.17-3.657,8.17-8.17V392.17c0-4.513-3.658-8.17-8.17-8.17c-4.512,0-8.17,3.657-8.17,8.17
	v35.404H49.021V84.426h413.957v275.064c0,4.513,3.658,8.17,8.17,8.17c4.512,0,8.17-3.657,8.17-8.17V76.255
	c0-4.513-3.658-8.17-8.17-8.17H40.851c-4.512,0-8.17,3.657-8.17,8.17v359.489C32.681,440.258,36.339,443.915,40.851,443.915z"/>
<path d="M247.83,119.83v272.34c0,4.513,3.658,8.17,8.17,8.17s8.17-3.657,8.17-8.17V119.83c0-4.513-3.658-8.17-8.17-8.17
	S247.83,115.317,247.83,119.83z"/>
<path d="M363.574,124.085c-7.854-7.843-18.595-12.425-29.984-12.425c-23.413,0-42.459,19.046-42.459,42.46
	c0,52.285,65.743,88.612,68.542,90.133c1.217,0.66,2.559,0.991,3.901,0.991c1.342,0,2.684-0.331,3.901-0.991
	c2.799-1.521,68.542-37.848,68.542-90.133c0-23.413-19.046-42.46-42.459-42.46C382.17,111.66,371.429,116.241,363.574,124.085z
	 M419.677,154.12c0,36.118-42.796,65.279-56.109,73.473c-13.322-8.177-56.096-37.261-56.096-73.473
	c0-14.402,11.717-26.12,26.119-26.12c9.476,0,18.226,5.167,22.837,13.485c1.44,2.597,4.176,4.208,7.146,4.208
	s5.706-1.611,7.146-4.208c4.611-8.318,13.362-13.485,22.837-13.485C407.959,128,419.677,139.717,419.677,154.12z"/>
<path d="M212.426,144.34h-128c-4.512,0-8.17,3.657-8.17,8.17s3.658,8.17,8.17,8.17h128c4.512,0,8.17-3.657,8.17-8.17
	S216.938,144.34,212.426,144.34z"/>
<path d="M212.426,187.915h-128c-4.512,0-8.17,3.657-8.17,8.17s3.658,8.17,8.17,8.17h128c4.512,0,8.17-3.657,8.17-8.17
	S216.938,187.915,212.426,187.915z"/>
<path d="M220.596,239.66c0-4.513-3.658-8.17-8.17-8.17h-128c-4.512,0-8.17,3.657-8.17,8.17s3.658,8.17,8.17,8.17h128
	C216.938,247.83,220.596,244.173,220.596,239.66z"/>
<path d="M84.426,351.319c-4.512,0-8.17,3.657-8.17,8.17s3.658,8.17,8.17,8.17h64c4.512,0,8.17-3.657,8.17-8.17
	s-3.658-8.17-8.17-8.17H84.426z"/>
</svg>